<?xml version="1.0" encoding="UTF-8"?>
<svg version="1.1" viewBox="0 0 207 124" xmlns="http://www.w3.org/2000/svg">
    <g fill="none" fill-rule="evenodd">
        <g transform="translate(-247 -138)" fill="#000">
            <g transform="translate(247 138)">
                <path d="m48.942 32.632h38.959v3.0816h-35.388v23.193h33.277v3.0816h-33.277v25.464h35.794v3.0816h-39.365v-57.902zm42.449 0h4.1394l18.343 25.464 18.749-25.464 25.502-32.345-41.897 60.485 21.59 29.762h-4.3017l-19.642-27.086-19.723 27.086h-4.2206l21.752-29.762-20.291-28.14zm47.968 3.0816v-3.0816h44.397v3.0816h-20.453v54.821h-3.5712v-54.821l-20.372-1e-7z"/>
                <polygon points="0.20292 32.632 4.667 32.632 66.224 124.3 40.785 90.534 3.9365 37.011 3.7742 90.534 0.20292 90.534"/>
                <path d="m183.4 86.523c0.73832 0 1.2769-0.56261 1.2769-1.2897 0-0.72707-0.53854-1.2897-1.2769-1.2897-0.72963 0-1.2769 0.56261-1.2769 1.2897 0 0.72707 0.54722 1.2897 1.2769 1.2897zm3.5092-3.393c0 2.1466 1.5548 3.5488 3.8219 3.5488 2.4147 0 3.874-1.4455 3.874-3.9556v-8.8374h-1.9457v8.8287c0 1.3936-0.70357 2.1379-1.9457 2.1379-1.1118 0-1.8675-0.69245-1.8936-1.7225h-1.9109zm10.241-0.11252c0.13898 2.2331 2.0065 3.6613 4.786 3.6613 2.9706 0 4.8295-1.4974 4.8295-3.8864 0-1.8783-1.0597-2.9169-3.6308-3.5142l-1.3811-0.33757c-1.633-0.38085-2.2931-0.89153-2.2931-1.7831 0-1.1252 1.025-1.861 2.5624-1.861 1.4593 0 2.4668 0.71842 2.6492 1.8696h1.8936c-0.11292-2.1033-1.9717-3.5834-4.5168-3.5834-2.7361 0-4.5602 1.4801-4.5602 3.7046 0 1.835 1.0336 2.9256 3.3007 3.4536l1.6156 0.3895c1.659 0.3895 2.3887 0.96077 2.3887 1.9129 0 1.1079-1.1466 1.9129-2.7101 1.9129-1.6764 0-2.8403-0.75304-3.0054-1.9389h-1.9283z"/>
            </g>
        </g>
    </g>
</svg>
